<svg width="1320" height="480" viewBox="0 0 1320 480" fill="none" xmlns="http://www.w3.org/2000/svg">
  <defs>
    <linearGradient id="dopaxSunrise" x1="44" y1="28" x2="336" y2="324" gradientUnits="userSpaceOnUse">
      <stop offset="0" stop-color="#F36A42"/>
      <stop offset="1" stop-color="#FFB13C"/>
    </linearGradient>
  </defs>

  <g transform="translate(42 54)">
    <path
      fill-rule="evenodd"
      clip-rule="evenodd"
      d="M117 16C61 16 26 51 26 107V245C26 301 61 336 117 336H173C265 336 345 266 345 176C345 86 265 16 173 16H117ZM116 72C95 72 82 85 82 106V246C82 267 95 280 116 280H166C224 280 289 234 289 176C289 118 224 72 166 72H116Z"
      fill="url(#dopaxSunrise)"
    />
    <line x1="140" y1="250" x2="244" y2="104" stroke="#122033" stroke-width="30" stroke-linecap="round"/>
    <line x1="205" y1="104" x2="309" y2="250" stroke="#122033" stroke-width="30" stroke-linecap="round"/>
    <circle cx="291" cy="83" r="15" fill="#122033"/>
  </g>

  <g transform="translate(444 112)">
    <text
      x="0"
      y="156"
      fill="#122033"
      font-family="Avenir Next, Futura, Trebuchet MS, sans-serif"
      font-size="168"
      font-weight="700"
      letter-spacing="6"
    >
      dopax
    </text>
    <text
      x="4"
      y="238"
      fill="#586676"
      font-family="Avenir Next, Futura, Trebuchet MS, sans-serif"
      font-size="36"
      font-weight="600"
      letter-spacing="9.5"
    >
      ADAPTIVE INTELLIGENCE
    </text>
  </g>
</svg>
